<svg xmlns="http://www.w3.org/2000/svg" width="512" height="512" viewBox="0 0 512 512">
<g>
<path d="M 264.40 475.35 C259.95,477.91 255.87,480.00 255.35,480.00 C253.85,480.00 237.05,469.84 221.60,459.60 C193.54,440.99 174.91,425.80 150.95,402.00 C130.23,381.40 113.00,359.40 113.00,353.53 C113.00,350.20 119.26,338.04 127.44,325.50 C131.60,319.12 135.00,313.41 135.00,312.80 C135.00,312.20 133.49,309.86 131.64,307.60 C122.56,296.49 118.62,284.92 118.69,269.50 C118.76,253.02 123.01,236.94 133.70,212.70 C137.29,204.56 140.07,197.81 139.87,197.70 C139.66,197.59 136.90,196.20 133.73,194.62 C125.05,190.28 119.31,181.98 116.89,170.26 C115.36,162.82 116.63,154.33 120.44,146.54 C121.91,143.53 122.70,140.56 122.37,139.29 C121.39,135.54 123.93,129.98 127.61,127.80 C130.88,125.87 131.00,125.58 131.00,119.64 L 131.00 113.48 L 121.12 109.20 C111.38,104.98 107.24,102.04 108.40,100.17 C108.99,99.21 125.42,91.81 175.50,69.97 C190.35,63.49 214.37,52.98 228.87,46.60 C243.37,40.22 255.80,35.00 256.48,35.00 C257.16,35.00 265.10,38.34 274.11,42.42 C293.45,51.18 367.00,83.77 378.50,88.68 C397.97,96.99 402.11,99.25 401.80,101.43 C401.40,104.23 393.75,107.91 359.13,122.01 L 330.88 133.50 L 331.55 139.33 C331.92,142.53 332.53,146.33 332.91,147.76 C333.58,150.25 333.74,150.12 336.74,144.80 C342.46,134.68 352.38,128.99 364.29,129.01 C372.56,129.02 379.13,132.13 385.22,138.90 C391.56,145.95 394.31,153.31 394.41,163.50 C394.55,178.38 388.44,189.20 376.60,195.02 L 370.12 198.22 L 372.68 203.86 C395.19,253.43 397.65,282.42 381.19,304.13 C378.61,307.53 376.11,310.82 375.64,311.43 C375.11,312.14 377.02,316.10 380.77,322.05 C388.84,334.86 395.74,348.12 396.53,352.31 C397.38,356.82 395.76,359.87 385.62,372.99 C369.59,393.70 338.01,424.08 312.71,443.13 C299.51,453.07 276.67,468.30 264.40,475.35 ZM 240.50 346.59 C244.41,347.50 250.15,347.83 257.00,347.56 C274.03,346.89 290.48,340.70 303.71,330.00 C307.11,327.25 310.18,325.00 310.54,325.00 C310.89,325.00 309.55,327.98 307.54,331.62 C305.54,335.26 304.11,338.45 304.36,338.70 C305.03,339.37 318.34,334.44 326.72,330.42 C338.57,324.73 350.96,315.78 360.11,306.29 C373.51,292.39 378.39,280.30 378.38,261.00 C378.38,249.13 376.31,237.88 371.77,225.00 C365.14,206.24 347.82,175.77 338.45,166.39 C333.09,161.04 318.43,153.89 307.06,151.08 C292.75,147.55 271.62,148.45 258.48,153.15 C256.03,154.03 253.52,153.74 245.08,151.62 C224.72,146.48 201.51,148.68 184.23,157.39 C175.34,161.86 171.27,165.40 165.45,173.73 C154.00,190.11 144.58,207.67 139.34,222.38 C136.15,231.35 132.03,248.90 131.31,256.54 C130.24,268.06 135.20,287.04 141.88,296.99 C149.22,307.92 167.40,322.70 183.52,330.85 C190.60,334.43 205.75,339.59 206.62,338.71 C207.16,338.17 205.72,335.39 201.20,328.25 C199.04,324.84 201.22,325.53 206.95,330.05 C217.21,338.17 228.81,343.88 240.50,346.59 ZM 328.16 264.60 C317.35,268.47 307.46,263.82 299.21,251.00 C297.26,247.98 293.79,243.02 291.50,240.00 C279.49,224.20 276.97,219.15 277.04,211.12 C277.14,201.44 281.95,193.20 289.78,189.34 C294.33,187.09 295.96,186.80 301.49,187.25 C312.25,188.11 320.95,195.07 327.55,208.10 C328.86,210.69 332.19,215.79 334.95,219.43 C341.19,227.68 344.57,237.67 343.52,244.79 C342.17,253.94 336.10,261.77 328.16,264.60 ZM 199.63 263.32 C188.59,269.03 175.19,264.22 169.45,252.48 C167.08,247.64 166.80,246.08 167.22,240.13 C167.79,232.17 171.12,224.13 176.21,218.38 C178.10,216.25 181.34,211.35 183.41,207.50 C190.36,194.59 198.66,188.12 209.37,187.26 C220.99,186.33 229.02,192.38 232.64,204.82 C235.20,213.63 233.44,219.46 224.37,232.15 C220.30,237.84 215.74,244.49 214.23,246.92 C209.36,254.79 203.59,261.27 199.63,263.32 ZM 245.40 307.95 C242.52,309.03 237.99,310.13 235.33,310.39 C220.82,311.84 204.43,301.09 205.20,290.61 C205.44,287.36 205.93,286.44 207.54,286.21 C209.08,285.99 210.01,286.90 211.36,289.96 C214.40,296.84 223.66,302.00 232.98,302.00 C238.06,302.00 246.72,299.28 249.06,296.94 C253.50,292.50 249.87,285.06 241.79,282.05 C228.79,277.20 225.00,273.43 225.00,265.34 C225.00,255.90 231.02,253.49 254.50,253.54 C274.64,253.58 277.93,254.12 282.52,258.15 C286.66,261.79 287.09,266.00 284.01,272.79 C282.42,276.28 281.17,277.46 277.28,279.06 C269.71,282.20 262.00,286.35 260.33,288.19 C257.91,290.86 260.14,296.16 264.77,298.71 C276.20,305.00 293.01,300.80 298.05,290.39 C300.23,285.89 301.69,285.09 303.80,287.20 C307.51,290.91 302.04,301.22 293.92,305.86 C282.72,312.26 269.81,312.10 259.93,305.45 C254.87,302.05 254.87,302.05 252.75,304.02 C251.58,305.11 248.27,306.88 245.40,307.95 ZM 212.82 433.75 C219.06,440.49 224.57,446.00 225.05,446.00 C225.53,446.00 226.43,444.09 227.05,441.75 C230.13,430.14 237.15,406.58 238.49,403.38 C239.32,401.39 240.00,399.21 240.00,398.53 C240.00,396.81 232.24,385.00 231.11,385.00 C230.17,385.00 217.61,394.27 210.89,399.93 L 207.27 402.98 L 198.31 394.24 C193.37,389.43 184.71,379.74 179.04,372.71 C173.38,365.68 168.56,360.10 168.34,360.32 C167.43,361.23 178.63,385.73 185.16,397.13 C193.69,412.03 198.15,417.93 212.82,433.75 ZM 284.45 444.41 L 285.12 447.31 L 290.14 442.41 C297.69,435.02 311.07,419.45 317.12,410.99 C324.50,400.67 343.00,364.15 343.00,359.89 C343.00,359.38 338.40,364.70 332.77,371.73 C327.15,378.75 318.40,388.71 313.33,393.86 L 304.12 403.22 L 296.31 396.34 C285.07,386.45 280.95,383.47 280.17,384.67 C279.80,385.23 277.59,388.61 275.24,392.18 L 270.99 398.66 L 273.05 404.58 C275.02,410.24 283.06,438.32 284.45,444.41 ZM 199.98 384.75 C203.34,388.74 206.42,392.00 206.82,392.00 C207.21,392.00 212.48,387.00 218.52,380.90 C224.56,374.79 231.65,368.06 234.28,365.95 L 239.05 362.10 L 235.28 361.49 C216.27,358.42 199.16,353.76 185.57,347.93 C180.25,345.65 175.71,343.96 175.49,344.17 C174.78,344.88 184.37,363.33 189.18,370.51 C191.75,374.36 196.61,380.76 199.98,384.75 ZM 302.00 391.22 C302.00,394.91 313.77,382.21 322.29,369.32 C329.04,359.11 335.56,347.23 334.82,346.49 C334.58,346.25 331.16,347.37 327.22,348.98 C317.54,352.92 299.89,357.51 286.50,359.57 C276.62,361.09 273.47,361.55 273.36,362.40 C273.31,362.79 273.91,363.27 274.80,363.98 C274.87,364.03 274.93,364.08 275.00,364.13 C279.07,367.36 302.00,390.36 302.00,391.22 ZM 134.00 99.04 C134.00,99.69 134.56,99.97 135.25,99.67 C139.59,97.79 173.86,82.76 175.50,82.02 C194.90,73.27 249.57,51.24 254.16,50.32 C256.82,49.79 291.40,62.90 326.91,77.92 C334.83,81.27 341.48,83.86 341.67,83.67 C341.99,83.35 267.78,50.25 258.26,46.47 L 254.02 44.79 L 245.76 48.29 C214.56,61.52 166.85,82.60 142.25,94.04 C137.71,96.14 134.00,98.40 134.00,99.04 ZM 187.03 143.86 C187.00,145.94 187.33,146.13 189.75,145.53 C191.26,145.15 192.56,144.76 192.64,144.67 C192.72,144.58 193.30,138.88 193.95,132.00 C195.97,110.26 194.42,112.97 207.86,107.67 C221.48,102.30 233.10,98.44 241.50,96.49 L 247.50 95.09 L 240.50 95.64 C229.66,96.49 207.30,102.48 194.75,107.88 C191.64,109.22 189.99,110.55 189.98,111.71 C189.97,112.70 189.31,119.80 188.51,127.50 C187.71,135.20 187.05,142.56 187.03,143.86 ZM 172.55 144.46 C173.60,146.41 174.74,148.00 175.09,148.00 C175.82,148.00 177.00,140.27 177.00,135.46 C177.00,132.81 176.48,132.00 174.25,131.17 C172.74,130.61 164.36,127.19 155.63,123.57 C146.90,119.96 139.14,117.00 138.38,117.00 C137.43,117.00 137.00,118.28 137.00,121.09 C137.00,126.88 139.70,128.92 147.50,128.99 C151.15,129.02 155.14,129.79 157.69,130.95 C162.91,133.32 170.04,139.80 172.55,144.46 ZM 266.23 328.35 C261.80,330.06 251.13,330.42 245.40,329.05 C240.64,327.92 233.56,323.68 233.19,321.74 C232.75,319.47 235.00,319.54 242.00,322.00 C249.14,324.51 258.17,324.52 266.16,322.01 C273.06,319.85 277.00,319.46 277.00,320.95 C277.00,322.39 271.03,326.49 266.23,328.35 ZM 238.67 453.33 C239.74,454.41 239.91,453.86 241.98,442.41 C243.07,436.41 245.29,426.10 246.91,419.50 C248.74,412.06 249.51,407.14 248.93,406.55 C248.35,405.95 248.00,406.07 248.00,406.86 C248.00,407.55 247.61,407.88 247.13,407.58 C245.87,406.80 242.41,418.52 239.00,435.08 C235.94,449.98 235.53,452.93 237.00,449.50 C237.78,447.69 237.87,447.74 237.93,450.08 C237.97,451.50 238.30,452.97 238.67,453.33 ZM 238.50 262.47 C245.09,264.85 271.57,263.83 274.30,261.10 C275.40,260.00 255.16,259.34 243.00,260.07 C237.77,260.39 233.73,260.73 234.00,260.84 C234.27,260.94 236.30,261.68 238.50,262.47 ZM 250.44 392.19 C251.57,392.56 253.79,392.68 255.38,392.44 C256.96,392.20 258.90,392.00 259.68,392.00 C260.47,392.00 260.84,391.55 260.50,391.00 C260.16,390.45 260.47,389.99 261.19,389.98 C262.14,389.97 262.09,389.70 261.00,389.00 C260.17,388.47 257.79,388.02 255.70,388.02 C251.17,388.00 246.91,385.97 244.22,382.55 C243.15,381.19 241.98,380.35 241.63,380.70 C241.28,381.05 241.00,380.73 241.00,380.00 C241.00,379.27 240.77,378.90 240.49,379.18 C240.20,379.46 240.69,381.42 241.57,383.52 C243.22,387.46 246.82,390.98 250.44,392.19 ZM 210.20 218.80 C213.77,222.37 219.26,218.07 217.12,213.37 C215.21,209.16 209.00,210.79 209.00,215.50 C209.00,216.65 209.54,218.14 210.20,218.80 ZM 294.56 218.07 C297.64,221.47 302.00,219.91 302.00,215.42 C302.00,212.46 299.56,210.64 296.58,211.39 C293.33,212.21 292.31,215.58 294.56,218.07 ZM 204.78 232.44 C207.79,234.08 212.43,234.32 215.50,233.00 C217.27,232.24 217.17,232.13 214.72,232.07 C210.94,231.97 205.91,229.74 203.57,227.11 C202.17,225.54 201.44,225.29 200.89,226.17 C199.83,227.89 201.57,230.70 204.78,232.44 ZM 293.68 232.70 C299.16,235.05 305.17,233.45 308.44,228.78 C311.38,224.58 310.00,223.67 306.61,227.58 C303.36,231.35 302.99,231.50 297.05,231.50 C291.33,231.50 291.07,231.59 293.68,232.70 Z" fill="rgb(2,2,2)"/>
<path d="M 134.00 99.04 C134.00,98.40 137.71,96.14 142.25,94.04 C166.85,82.60 214.56,61.52 245.76,48.29 L 254.02 44.79 L 258.26 46.47 C267.78,50.25 341.99,83.35 341.67,83.67 C341.48,83.86 334.83,81.27 326.91,77.92 C291.40,62.90 256.82,49.79 254.16,50.32 C249.57,51.24 194.90,73.27 175.50,82.02 C173.86,82.76 139.59,97.79 135.25,99.67 C134.56,99.97 134.00,99.69 134.00,99.04 ZM 187.03 143.86 C187.05,142.56 187.71,135.20 188.51,127.50 C189.31,119.80 189.97,112.70 189.98,111.71 C189.99,110.55 191.64,109.22 194.75,107.88 C207.30,102.48 229.66,96.49 240.50,95.64 L 247.50 95.09 L 241.50 96.49 C233.10,98.44 221.48,102.30 207.86,107.67 C194.42,112.97 195.97,110.26 193.95,132.00 C193.30,138.88 192.72,144.58 192.64,144.67 C192.56,144.76 191.26,145.15 189.75,145.53 C187.33,146.13 187.00,145.94 187.03,143.86 ZM 238.67 453.33 C238.30,452.97 237.97,451.50 237.93,450.08 C237.87,447.74 237.78,447.69 237.00,449.50 C235.53,452.93 235.94,449.98 239.00,435.08 C242.41,418.52 245.87,406.80 247.13,407.58 C247.61,407.88 248.00,407.55 248.00,406.86 C248.00,406.07 248.35,405.95 248.93,406.55 C249.51,407.14 248.74,412.06 246.91,419.50 C245.29,426.10 243.07,436.41 241.98,442.41 C239.91,453.86 239.74,454.41 238.67,453.33 ZM 238.50 262.47 C236.30,261.68 234.27,260.94 234.00,260.84 C233.73,260.73 237.77,260.39 243.00,260.07 C255.16,259.34 275.40,260.00 274.30,261.10 C271.57,263.83 245.09,264.85 238.50,262.47 ZM 250.44 392.19 C246.82,390.98 243.22,387.46 241.57,383.52 C240.69,381.42 240.20,379.46 240.49,379.18 C240.77,378.90 241.00,379.27 241.00,380.00 C241.00,380.73 241.28,381.05 241.63,380.70 C241.98,380.35 243.15,381.19 244.22,382.55 C246.91,385.97 251.17,388.00 255.70,388.02 C257.79,388.02 260.17,388.47 261.00,389.00 C262.09,389.70 262.14,389.97 261.19,389.98 C260.47,389.99 260.16,390.45 260.50,391.00 C260.84,391.55 260.47,392.00 259.68,392.00 C258.90,392.00 256.96,392.20 255.38,392.44 C253.79,392.68 251.57,392.56 250.44,392.19 ZM 204.78 232.44 C201.57,230.70 199.83,227.89 200.89,226.17 C201.44,225.29 202.17,225.54 203.57,227.11 C205.91,229.74 210.94,231.97 214.72,232.07 C217.17,232.13 217.27,232.24 215.50,233.00 C212.43,234.32 207.79,234.08 204.78,232.44 ZM 293.68 232.70 C291.07,231.59 291.33,231.50 297.05,231.50 C302.99,231.50 303.36,231.35 306.61,227.58 C310.00,223.67 311.38,224.58 308.44,228.78 C305.17,233.45 299.16,235.05 293.68,232.70 Z" fill="rgb(102,101,98)"/>
<path d="M 0.00 256.00 L 0.00 0.00 L 256.00 0.00 L 512.00 0.00 L 512.00 256.00 L 512.00 512.00 L 256.00 512.00 L 0.00 512.00 L 0.00 256.00 ZM 264.40 475.35 C276.67,468.30 299.51,453.07 312.71,443.13 C338.01,424.08 369.59,393.70 385.62,372.99 C395.76,359.87 397.38,356.82 396.53,352.31 C395.74,348.12 388.84,334.86 380.77,322.05 C377.02,316.10 375.11,312.14 375.64,311.43 C376.11,310.82 378.61,307.53 381.19,304.13 C397.65,282.42 395.19,253.43 372.68,203.86 L 370.12 198.22 L 376.60 195.02 C388.44,189.20 394.55,178.38 394.41,163.50 C394.31,153.31 391.56,145.95 385.22,138.90 C379.13,132.13 372.56,129.02 364.29,129.01 C352.38,128.99 342.46,134.68 336.74,144.80 C333.74,150.12 333.58,150.25 332.91,147.76 C332.53,146.33 331.92,142.53 331.55,139.33 L 330.88 133.50 L 359.13 122.01 C393.75,107.91 401.40,104.23 401.80,101.43 C402.11,99.25 397.97,96.99 378.50,88.68 C367.00,83.77 293.45,51.18 274.11,42.42 C265.10,38.34 257.16,35.00 256.48,35.00 C255.80,35.00 243.37,40.22 228.87,46.60 C214.37,52.98 190.35,63.49 175.50,69.97 C125.42,91.81 108.99,99.21 108.40,100.17 C107.24,102.04 111.38,104.98 121.12,109.20 L 131.00 113.48 L 131.00 119.64 C131.00,125.58 130.88,125.87 127.61,127.80 C123.93,129.98 121.39,135.54 122.37,139.29 C122.70,140.56 121.91,143.53 120.44,146.54 C116.63,154.33 115.36,162.82 116.89,170.26 C119.31,181.98 125.05,190.28 133.73,194.62 C136.90,196.20 139.66,197.59 139.87,197.70 C140.07,197.81 137.29,204.56 133.70,212.70 C123.01,236.94 118.76,253.02 118.69,269.50 C118.62,284.92 122.56,296.49 131.64,307.60 C133.49,309.86 135.00,312.20 135.00,312.80 C135.00,313.41 131.60,319.12 127.44,325.50 C119.26,338.04 113.00,350.20 113.00,353.53 C113.00,359.40 130.23,381.40 150.95,402.00 C174.91,425.80 193.54,440.99 221.60,459.60 C237.05,469.84 253.85,480.00 255.35,480.00 C255.87,480.00 259.95,477.91 264.40,475.35 ZM 284.45 444.41 C283.06,438.32 275.02,410.24 273.05,404.58 L 270.99 398.66 L 275.24 392.18 C277.59,388.61 279.80,385.23 280.17,384.67 C280.95,383.47 285.07,386.45 296.31,396.34 L 304.12 403.22 L 313.33 393.86 C318.40,388.71 327.15,378.75 332.77,371.73 C338.40,364.70 343.00,359.38 343.00,359.89 C343.00,364.15 324.50,400.67 317.12,410.99 C311.07,419.45 297.69,435.02 290.14,442.41 L 285.12 447.31 L 284.45 444.41 ZM 212.82 433.75 C198.15,417.93 193.69,412.03 185.16,397.13 C178.63,385.73 167.43,361.23 168.34,360.32 C168.56,360.10 173.38,365.68 179.04,372.71 C184.71,379.74 193.37,389.43 198.31,394.24 L 207.27 402.98 L 210.89 399.93 C217.61,394.27 230.17,385.00 231.11,385.00 C232.24,385.00 240.00,396.81 240.00,398.53 C240.00,399.21 239.32,401.39 238.49,403.38 C237.15,406.58 230.13,430.14 227.05,441.75 C226.43,444.09 225.53,446.00 225.05,446.00 C224.57,446.00 219.06,440.49 212.82,433.75 ZM 199.98 384.75 C196.61,380.76 191.75,374.36 189.18,370.51 C184.37,363.33 174.78,344.88 175.49,344.17 C175.71,343.96 180.25,345.65 185.57,347.93 C199.16,353.76 216.27,358.42 235.28,361.49 L 239.05 362.10 L 234.28 365.95 C231.65,368.06 224.56,374.79 218.52,380.90 C212.48,387.00 207.21,392.00 206.82,392.00 C206.42,392.00 203.34,388.74 199.98,384.75 ZM 302.00 391.22 C302.00,390.36 279.07,367.36 275.00,364.13 C271.99,361.74 271.72,361.85 286.50,359.57 C299.89,357.51 317.54,352.92 327.22,348.98 C331.16,347.37 334.58,346.25 334.82,346.49 C335.56,347.23 329.04,359.11 322.29,369.32 C313.77,382.21 302.00,394.91 302.00,391.22 ZM 240.50 346.59 C228.81,343.88 217.21,338.17 206.95,330.05 C201.22,325.53 199.04,324.84 201.20,328.25 C205.72,335.39 207.16,338.17 206.62,338.71 C205.75,339.59 190.60,334.43 183.52,330.85 C167.40,322.70 149.22,307.92 141.88,296.99 C135.20,287.04 130.24,268.06 131.31,256.54 C132.03,248.90 136.15,231.35 139.34,222.38 C144.58,207.67 154.00,190.11 165.45,173.73 C171.27,165.40 175.34,161.86 184.23,157.39 C201.51,148.68 224.72,146.48 245.08,151.62 C253.52,153.74 256.03,154.03 258.48,153.15 C271.62,148.45 292.75,147.55 307.06,151.08 C318.43,153.89 333.09,161.04 338.45,166.39 C347.82,175.77 365.14,206.24 371.77,225.00 C376.31,237.88 378.38,249.13 378.38,261.00 C378.39,280.30 373.51,292.39 360.11,306.29 C350.96,315.78 338.57,324.73 326.72,330.42 C318.34,334.44 305.03,339.37 304.36,338.70 C304.11,338.45 305.54,335.26 307.54,331.62 C309.55,327.98 310.89,325.00 310.54,325.00 C310.18,325.00 307.11,327.25 303.71,330.00 C290.48,340.70 274.03,346.89 257.00,347.56 C250.15,347.83 244.41,347.50 240.50,346.59 ZM 266.23 328.35 C271.03,326.49 277.00,322.39 277.00,320.95 C277.00,319.46 273.06,319.85 266.16,322.01 C258.17,324.52 249.14,324.51 242.00,322.00 C235.00,319.54 232.75,319.47 233.19,321.74 C233.56,323.68 240.64,327.92 245.40,329.05 C251.13,330.42 261.80,330.06 266.23,328.35 ZM 245.40 307.95 C248.27,306.88 251.58,305.11 252.75,304.02 C254.87,302.05 254.87,302.05 259.93,305.45 C269.81,312.10 282.72,312.26 293.92,305.86 C302.04,301.22 307.51,290.91 303.80,287.20 C301.69,285.09 300.23,285.89 298.05,290.39 C293.01,300.80 276.20,305.00 264.77,298.71 C260.14,296.16 257.91,290.86 260.33,288.19 C262.00,286.35 269.71,282.20 277.28,279.06 C281.17,277.46 282.42,276.28 284.01,272.79 C287.09,266.00 286.66,261.79 282.52,258.15 C277.93,254.12 274.64,253.58 254.50,253.54 C231.02,253.49 225.00,255.90 225.00,265.34 C225.00,273.43 228.79,277.20 241.79,282.05 C249.87,285.06 253.50,292.50 249.06,296.94 C246.72,299.28 238.06,302.00 232.98,302.00 C223.66,302.00 214.40,296.84 211.36,289.96 C210.01,286.90 209.08,285.99 207.54,286.21 C205.93,286.44 205.44,287.36 205.20,290.61 C204.43,301.09 220.82,311.84 235.33,310.39 C237.99,310.13 242.52,309.03 245.40,307.95 ZM 199.63 263.32 C203.59,261.27 209.36,254.79 214.23,246.92 C215.74,244.49 220.30,237.84 224.37,232.15 C233.44,219.46 235.20,213.63 232.64,204.82 C229.02,192.38 220.99,186.33 209.37,187.26 C198.66,188.12 190.36,194.59 183.41,207.50 C181.34,211.35 178.10,216.25 176.21,218.38 C171.12,224.13 167.79,232.17 167.22,240.13 C166.80,246.08 167.08,247.64 169.45,252.48 C175.19,264.22 188.59,269.03 199.63,263.32 ZM 328.16 264.60 C336.10,261.77 342.17,253.94 343.52,244.79 C344.57,237.67 341.19,227.68 334.95,219.43 C332.19,215.79 328.86,210.69 327.55,208.10 C320.95,195.07 312.25,188.11 301.49,187.25 C295.96,186.80 294.33,187.09 289.78,189.34 C281.95,193.20 277.14,201.44 277.04,211.12 C276.97,219.15 279.49,224.20 291.50,240.00 C293.79,243.02 297.26,247.98 299.21,251.00 C307.46,263.82 317.35,268.47 328.16,264.60 ZM 172.55 144.46 C170.04,139.80 162.91,133.32 157.69,130.95 C155.14,129.79 151.15,129.02 147.50,128.99 C139.70,128.92 137.00,126.88 137.00,121.09 C137.00,118.28 137.43,117.00 138.38,117.00 C139.14,117.00 146.90,119.96 155.63,123.57 C164.36,127.19 172.74,130.61 174.25,131.17 C176.48,132.00 177.00,132.81 177.00,135.46 C177.00,140.27 175.82,148.00 175.09,148.00 C174.74,148.00 173.60,146.41 172.55,144.46 ZM 210.20 218.80 C209.54,218.14 209.00,216.65 209.00,215.50 C209.00,210.79 215.21,209.16 217.12,213.37 C219.26,218.07 213.77,222.37 210.20,218.80 ZM 294.56 218.07 C292.31,215.58 293.33,212.21 296.58,211.39 C299.56,210.64 302.00,212.46 302.00,215.42 C302.00,219.91 297.64,221.47 294.56,218.07 Z" fill="rgb(252,252,250)"/>
</g>
</svg>